<?xml version="1.0" encoding="utf-8"?>
<!-- Generator: Adobe Illustrator 23.0.5, SVG Export Plug-In . SVG Version: 6.00 Build 0)  -->
<svg version="1.1" baseProfile="tiny" xmlns="http://www.w3.org/2000/svg" xmlns:xlink="http://www.w3.org/1999/xlink" x="0px"
	 y="0px" viewBox="0 0 80 80" xml:space="preserve">
<g id="Layer_1">
	<path fill="#646464" d="M52.7,0C48,0,43.3,1.8,39.7,5.3l-4.3,4.3l-4.3-4.3C27.6,1.8,23,0,18.3,0C13.6,0,8.9,1.8,5.3,5.3
		c-7.1,7.1-7.1,18.7,0,25.9L33.9,60c1.5,11.3,11.2,20,22.9,20C69.6,80,80,69.6,80,56.8c0-10.8-7.5-20-17.6-22.5l3.2-3.2
		c7.1-7.1,7.1-18.7,0-25.9C62,1.8,57.4,0,52.7,0L52.7,0z M35.5,16.2l7.6-7.6c2.7-2.7,6.1-4,9.6-4c3.5,0,7,1.3,9.6,4
		c2.6,2.6,4,6,4,9.6c0,2.4-0.6,4.7-1.8,6.7L39.7,25l-3.6,4.7l-7.5-11.4l-4,7.2H6.8C3.5,20.3,4.1,13.2,8.7,8.7h0c2.7-2.7,6.1-4,9.6-4
		s7,1.3,9.6,4L35.5,16.2L35.5,16.2z M34,53.4L11,30.2h16.4l1.6-2.9l6.9,10.6l6.2-8.2l18.4-0.1l-4,4C45.1,33.9,35.6,42.4,34,53.4
		L34,53.4z M54.5,43.1h4.7v-4.5c8.3,1.1,14.9,7.7,16,16h-4.5v4.7h4.5c-1.1,8.3-7.7,14.9-16,15.9v-4.4h-4.7v4.4
		c-8.3-1.1-14.9-7.6-16-15.9H43v-4.7h-4.5c1-8.3,7.7-15,16-16V43.1L54.5,43.1z"/>
	<path fill="#FFC446" d="M54.5,48l0,7.4L51.2,58l2.9,3.7l5.1-4l0-9.7L54.5,48z"/>
</g>
<g id="Layer_2">
	<path fill="#FFC446" d="M56.8,38.5c10.1,0,18.4,8.2,18.4,18.4s-8.2,18.4-18.4,18.4c-10.1,0-18.4-8.2-18.4-18.4S46.7,38.5,56.8,38.5
		 M56.8,33.5c-12.9,0-23.4,10.5-23.4,23.4s10.5,23.4,23.4,23.4s23.4-10.5,23.4-23.4S69.7,33.5,56.8,33.5L56.8,33.5z"/>
</g>
</svg>
